<?xml version="1.0" encoding="UTF-8" standalone="no"?>
<!DOCTYPE svg PUBLIC "-//W3C//DTD SVG 1.1//EN" "http://www.w3.org/Graphics/SVG/1.1/DTD/svg11.dtd">
<svg width="100%" height="100%" viewBox="0 0 1024 1024" version="1.1" xmlns="http://www.w3.org/2000/svg" xmlns:xlink="http://www.w3.org/1999/xlink" xml:space="preserve" xmlns:serif="http://www.serif.com/" style="fill-rule:evenodd;clip-rule:evenodd;stroke-linejoin:round;stroke-miterlimit:2;">
    <circle cx="512" cy="512" r="512" style="fill:rgb(29,185,84);"/>
    <g transform="matrix(0.664653,0,0,0.674913,142.207,166.444)">
        <path d="M971,986C929,986 895,952 895,910L895,114C895,72.308 929.308,38 971,38C1012.69,38 1047,72.308 1047,114L1047,910C1047,952 1013,986 971,986ZM770,986C728,986 694,952 694,910L694,114C694,72.308 728.308,38 770,38C811.692,38 846,72.308 846,114L846,910C846,952 812,986 770,986ZM569,986C527,986 493,952 493,910L493,114C493,72.308 527.308,38 569,38C610.692,38 645,72.308 645,114L645,910C645,952 611,986 569,986ZM99,963C91,963 82,961 74,958C34.81,943.971 14.063,900.223 28,861L296,112C305.683,80.044 335.344,58.039 368.734,58.039C410.427,58.039 444.734,92.347 444.734,134.039C444.734,143.975 442.786,153.814 439,163L171,912C160.362,942.541 131.341,963.098 99,963Z" style="fill:rgb(8,8,8);"/>
    </g>
</svg>
